<svg width="122" height="30" viewBox="0 0 122 30" fill="none" xmlns="http://www.w3.org/2000/svg">
<mask id="mask0" mask-type="alpha" maskUnits="userSpaceOnUse" x="1" y="0" width="58" height="30">
<path fill-rule="evenodd" clip-rule="evenodd" d="M1.5515 0H58.9072V29.9998H1.5515V0Z" fill="white"/>
</mask>
<g mask="url(#mask0)">
<path fill-rule="evenodd" clip-rule="evenodd" d="M58.9072 9.30453C58.9072 8.62203 58.3489 8.07078 57.6631 8.07078C56.9744 8.07078 56.4161 8.62203 56.4161 9.30453V11.9014C56.4161 12.5858 56.9744 13.1389 57.6631 13.1389C58.3489 13.1389 58.9072 12.5858 58.9072 11.9014V9.30453ZM52.0602 5.89577C52.0602 5.21514 51.5029 4.66108 50.8 4.66108C50.1123 4.66108 49.5559 5.21514 49.5559 5.89577V11.9014C49.5559 12.5858 50.1123 13.1389 50.8 13.1389C51.5029 13.1389 52.0602 12.5858 52.0602 11.9014V5.89577ZM45.1991 1.23452C45.1991 0.552957 44.6418 -0.000167847 43.954 -0.000167847C43.2663 -0.000167847 42.709 0.552957 42.709 1.23452V14.368C42.709 15.0533 43.2663 15.6064 43.954 15.6064C44.6418 15.6064 45.1991 15.0533 45.1991 14.368V1.23452ZM38.3361 5.89577C38.3361 5.21514 37.7787 4.66108 37.091 4.66108C36.4042 4.66108 35.8459 5.21514 35.8459 5.89577V11.9014C35.8459 12.5858 36.4042 13.1389 37.091 13.1389C37.7787 13.1389 38.3361 12.5858 38.3361 11.9014V5.89577ZM31.4739 9.30453C31.4739 8.62203 30.9166 8.07078 30.2327 8.07078C29.5459 8.07078 28.9847 8.62203 28.9847 9.30453V11.9014C28.9847 12.5858 29.5459 13.1389 30.2327 13.1389C30.9166 13.1389 31.4739 12.5858 31.4739 11.9014V9.30453ZM24.6242 5.89577C24.6242 5.21514 24.063 4.66108 23.3744 4.66108C22.6876 4.66108 22.1265 5.21514 22.1265 5.89577V11.9014C22.1265 12.5858 22.6876 13.1389 23.3744 13.1389C24.063 13.1389 24.6242 12.5858 24.6242 11.9014V5.89577ZM17.7649 1.23452C17.7649 0.552957 17.2047 -0.000167847 16.517 -0.000167847C15.8292 -0.000167847 15.2681 0.552957 15.2681 1.23452V14.368C15.2681 15.0533 15.8292 15.6064 16.517 15.6064C17.2047 15.6064 17.7649 15.0533 17.7649 14.368V1.23452ZM10.9066 5.89577C10.9066 5.21514 10.3455 4.66108 9.6587 4.66108C8.97098 4.66108 8.40985 5.21514 8.40985 5.89577V11.9014C8.40985 12.5858 8.97098 13.1389 9.6587 13.1389C10.3455 13.1389 10.9066 12.5858 10.9066 11.9014V5.89577ZM4.04826 9.30453C4.04826 8.62203 3.48807 8.07078 2.79941 8.07078C2.11263 8.07078 1.5515 8.62203 1.5515 9.30453V11.9014C1.5515 12.5858 2.11263 13.1389 2.79941 13.1389C3.48807 13.1389 4.04826 12.5858 4.04826 11.9014V9.30453ZM29.8264 20.0708C29.7509 20.0502 28.5993 19.7548 27.375 19.7548C25.0568 19.7548 23.6596 20.997 23.6596 22.8477C23.6596 24.4845 24.8291 25.3011 26.2301 25.7398C26.385 25.7923 26.6127 25.8627 26.7667 25.9133C27.3911 26.1073 27.887 26.397 27.887 26.8977C27.887 27.4583 27.3117 27.822 26.06 27.822C24.9623 27.822 23.9071 27.5098 23.6861 27.4545V29.7308C23.8098 29.757 25.0634 29.9998 26.4001 29.9998C28.3254 29.9998 30.5274 29.1664 30.5274 26.6811C30.5274 25.4773 29.782 24.3655 28.1506 23.8517L27.4572 23.6323C27.0434 23.503 26.3038 23.293 26.3038 22.6902C26.3038 22.2148 26.8517 21.8802 27.8606 21.8802C28.7297 21.8802 29.7887 22.1708 29.8264 22.182V20.0708ZM48.479 22.2767C49.9687 22.2767 51.0806 23.442 51.0806 24.8773C51.0806 26.3164 49.9687 27.4817 48.479 27.4817C46.9864 27.4817 45.8783 26.3164 45.8783 24.8773C45.8783 23.442 46.9864 22.2767 48.479 22.2767ZM53.7445 24.8773C53.7445 22.0536 51.5434 19.7586 48.4789 19.7586C45.4134 19.7586 43.2152 22.0536 43.2152 24.8773C43.2152 27.7076 45.4134 29.9998 48.4789 29.9998C51.5434 29.9998 53.7445 27.7076 53.7445 24.8773ZM14.3159 20.1111C14.0788 20.0436 13.205 19.7586 12.0222 19.7586C8.9615 19.7586 6.71507 21.9251 6.71507 24.8773C6.71507 28.0648 9.19483 29.9998 12.0222 29.9998C13.1464 29.9998 14.0023 29.7364 14.3159 29.6473V26.9933C14.2073 27.0523 13.3854 27.5183 12.2036 27.5183C10.5268 27.5183 9.44611 26.3483 9.44611 24.8773C9.44611 23.3623 10.574 22.2411 12.2036 22.2411C13.4052 22.2411 14.2148 22.7164 14.3159 22.767V20.1111ZM40.5664 20.1111C40.3293 20.0436 39.4546 19.7586 38.2737 19.7586C35.2092 19.7586 32.9637 21.9251 32.9637 24.8773C32.9637 28.0648 35.4454 29.9998 38.2737 29.9998C39.3913 29.9998 40.25 29.7364 40.5664 29.6473V26.9933C40.4569 27.0523 39.6331 27.5183 38.4513 27.5183C36.7774 27.5183 35.6967 26.3483 35.6967 24.8773C35.6967 23.3623 36.8246 22.2411 38.4513 22.2411C39.6539 22.2411 40.4644 22.7164 40.5664 22.767V20.1111ZM17.7724 29.8255H20.2881V19.9339H17.7724V29.8255Z" fill="#00BCEB"/>
</g>
<path d="M81.7586 16.2345H82.5126L78.8052 29.3379H77.7037L74.0519 16.8966L70.4174 29.3483H69.2847L65.5772 16.2448H66.4042L69.8788 28.6828L73.5307 16.2448H74.653L78.2666 28.6586L81.7586 16.2345Z" fill="#005073"/>
<path fill-rule="evenodd" clip-rule="evenodd" d="M91.359 26.8172H90.5494C90.3942 27.4187 90.0362 27.9493 89.5348 28.3207C88.9419 28.7586 88.2166 28.9836 87.4778 28.9586C86.5837 28.9883 85.7125 28.6746 85.0456 28.0827C84.2371 27.3425 83.8086 26.2437 83.76 24.7862H91.5432C91.5432 23.2046 91.176 21.954 90.4417 21.0345C89.6697 20.0851 88.4866 19.5596 87.2589 19.6207C86.1832 19.5862 85.1408 19.9942 84.3784 20.7482C83.4519 21.6586 82.9886 22.9517 82.9886 24.6276C82.9886 26.0965 83.3615 27.2747 84.1074 28.162C85.5706 29.7663 87.9797 30.1043 89.8336 28.9655C90.6014 28.4706 91.1477 27.7013 91.359 26.8172ZM90.7267 24.1551H83.7774C83.786 23.1455 84.1359 22.168 84.7712 21.3793C85.3707 20.6264 86.2923 20.1972 87.259 20.2207C88.0974 20.1947 88.9112 20.5041 89.5175 21.0793C90.2611 21.7827 90.6677 22.8069 90.7267 24.1551Z" fill="#005073"/>
<path fill-rule="evenodd" clip-rule="evenodd" d="M93.7634 29.3483H94.3854L94.5174 27.4896C94.7714 28.0755 95.1765 28.5846 95.6919 28.9655C97.2201 30.015 99.2876 29.8215 100.591 28.5069C101.46 27.585 101.894 26.2483 101.894 24.4965C101.892 23.0046 101.568 21.8333 100.921 20.9827C100.211 20.0657 99.0939 19.5507 97.9295 19.6034C97.2294 19.594 96.5412 19.783 95.9455 20.1483C95.3233 20.5381 94.8312 21.1021 94.5313 21.7689V16.2448H93.7634V29.3483ZM95.3966 21.3793C95.9653 20.6361 96.8612 20.2121 97.801 20.2414C98.6486 20.1989 99.4733 20.522 100.063 21.1276C100.758 21.8563 101.105 22.9667 101.105 24.4586C101.105 25.8287 100.824 26.9161 100.261 27.7207C99.7193 28.4499 98.8835 28.9077 97.973 28.974C97.0626 29.0402 96.1684 28.7084 95.5252 28.0655C94.814 27.2862 94.4584 26.1448 94.4584 24.6414C94.4584 23.2322 94.7712 22.1448 95.3966 21.3793Z" fill="#005073"/>
<path fill-rule="evenodd" clip-rule="evenodd" d="M111.859 26.8172H111.05C110.894 27.4187 110.536 27.9493 110.035 28.3207C109.442 28.7591 108.717 28.9841 107.978 28.9586C107.084 28.9861 106.214 28.6727 105.546 28.0827C104.737 27.3425 104.309 26.2437 104.26 24.7862H112.043C112.043 23.2046 111.676 21.954 110.942 21.0345C110.17 20.0851 108.987 19.5596 107.759 19.6207C106.683 19.5862 105.641 19.9942 104.879 20.7482C103.952 21.6586 103.489 22.9517 103.489 24.6276C103.491 26.0965 103.864 27.2747 104.608 28.162C106.071 29.7663 108.48 30.1043 110.334 28.9655C111.102 28.4706 111.648 27.7013 111.859 26.8172ZM111.227 24.1551H104.278C104.286 23.1455 104.636 22.168 105.272 21.3793C105.871 20.6264 106.793 20.1972 107.759 20.2207C108.598 20.1947 109.412 20.5041 110.018 21.0793C110.762 21.7827 111.168 22.8069 111.227 24.1551Z" fill="#005073"/>
<path d="M121.182 19.8758L117.86 24.3586L121.752 29.3483H120.817L117.367 24.9034L114.062 29.3483H113.162L116.908 24.3552L113.329 19.8724H114.299L117.426 23.8069L120.31 19.8724L121.182 19.8758Z" fill="#005073"/>
</svg>
